M48
; DRILL file {KiCad (5.1.12)-1} date 12/27/21 17:53:32
; FORMAT={-:-/ absolute / inch / decimal}
; #@! TF.CreationDate,2021-12-27T17:53:32+01:00
; #@! TF.GenerationSoftware,Kicad,Pcbnew,(5.1.12)-1
; #@! TF.FileFunction,Plated,1,4,PTH
FMAT,2
INCH
T1C0.0118
T2C0.0236
T3C0.0394
%
G90
G05
T1
X3.5472Y-2.4803
X3.5472Y-3.061
X3.5571Y-2.8996
X3.5591Y-3.4547
X3.5591Y-3.4882
X3.565Y-3.5177
X3.5669Y-3.5886
X3.5768Y-3.7205
X3.5866Y-3.2244
X3.5906Y-3.5413
X3.5965Y-3.4508
X3.6004Y-2.5256
X3.6004Y-2.6161
X3.6004Y-3.3189
X3.628Y-3.5413
X3.6398Y-2.8543
X3.6654Y-3.5098
X3.7047Y-2.311
X3.7047Y-3.8228
X3.7067Y-3.2657
X3.7087Y-2.815
X3.7087Y-3.1496
X3.7126Y-2.5709
X3.7165Y-2.687
X3.7165Y-2.9291
X3.7244Y-2.7205
X3.7323Y-2.374
X3.7323Y-2.7795
X3.7362Y-2.872
X3.7598Y-3.2697
X3.7598Y-3.2913
X3.7598Y-3.313
X3.7598Y-3.3366
X3.7598Y-3.3583
X3.7598Y-3.3819
X3.7598Y-3.4055
X3.7598Y-3.5
X3.8031Y-2.7126
X3.811Y-2.6654
X3.8372Y-2.9238
X3.8386Y-2.3661
X3.8386Y-2.8878
X3.8386Y-3.0768
X3.8563Y-2.9469
X3.8602Y-2.8642
X3.8727Y-3.2003
X3.8805Y-2.9232
X3.9016Y-2.9449
X3.9171Y-3.2441
X3.9252Y-2.7343
X3.9252Y-2.9252
X3.939Y-3.435
X3.9508Y-2.937
X3.9571Y-2.729
X3.9577Y-3.7579
X3.9665Y-3.5935
X3.9665Y-3.623
X3.9764Y-3.0787
X3.9783Y-3.2264
X3.9827Y-2.7188
X3.9872Y-3.7579
X3.9882Y-2.939
X3.9882Y-2.9921
X4.0Y-3.063
X4.0044Y-2.7004
X4.0177Y-2.937
X4.019Y-2.6286
X4.0197Y-2.9685
X4.0335Y-3.2165
X4.0354Y-3.4685
X4.0374Y-2.8701
X4.0531Y-2.4862
X4.0551Y-2.439
X4.0551Y-2.5846
X4.0561Y-3.2943
X4.065Y-3.0866
X4.0728Y-2.4035
X4.1102Y-3.2224
X4.1142Y-2.3819
X4.128Y-2.6988
X4.1289Y-2.812
X4.1354Y-2.5665
X4.1378Y-2.5335
X4.1575Y-3.2185
X4.1596Y-2.8922
X4.1654Y-3.5197
X4.1656Y-3.0396
X4.1693Y-3.0689
X4.1752Y-2.3307
X4.1752Y-3.2756
X4.2008Y-2.2323
X4.2047Y-2.3071
X4.2165Y-2.7913
X4.2264Y-2.9744
X4.2371Y-3.8298
X4.2461Y-2.6516
X4.2559Y-2.7008
X4.2717Y-3.4488
X4.2972Y-3.4094
X4.3012Y-2.5461
X4.3071Y-2.8425
X4.315Y-3.2323
X4.315Y-3.4429
X4.315Y-3.5925
X4.3386Y-2.4094
X4.3406Y-2.9665
X4.3445Y-2.6417
X4.3465Y-2.4705
X4.3602Y-2.8189
T2
X3.8976Y-3.5374
T3
X3.4528Y-2.2638
X3.4528Y-2.3638
X3.4528Y-2.4638
X3.4528Y-2.5638
X3.4528Y-2.6638
X3.4528Y-2.7638
X3.4528Y-2.8638
X3.4528Y-2.9638
X3.4528Y-3.0638
X3.4528Y-3.1638
X3.4528Y-3.2638
X3.4528Y-3.3638
X3.4528Y-3.4638
X3.4528Y-3.5638
X3.4528Y-3.6638
X3.8031Y-2.2677
X3.9031Y-2.2677
X4.0031Y-2.2677
X4.1031Y-2.2677
X4.4528Y-2.2677
X4.4528Y-2.3677
X4.4528Y-2.4677
X4.4528Y-2.5677
X4.4528Y-2.6677
X4.4528Y-2.7677
X4.4528Y-2.8677
X4.4528Y-2.9677
X4.4528Y-3.0677
X4.4528Y-3.1677
X4.4528Y-3.2677
X4.4528Y-3.3677
X4.4528Y-3.4677
X4.4528Y-3.5677
X4.4528Y-3.6677
T2
G00X3.7827Y-3.6957
M15
G01X3.7827Y-3.739
M16
G05
G00X3.7827Y-3.8661
M15
G01X3.7827Y-3.8976
M16
G05
G00X4.1228Y-3.6957
M15
G01X4.1228Y-3.739
M16
G05
G00X4.1228Y-3.8661
M15
G01X4.1228Y-3.8976
M16
G05
T0
M30
