%TF.GenerationSoftware,KiCad,Pcbnew,(5.1.12)-1*%
%TF.CreationDate,2021-12-27T17:53:29+01:00*%
%TF.ProjectId,stm32l-mcu-board,73746d33-326c-42d6-9d63-752d626f6172,rev?*%
%TF.SameCoordinates,Original*%
%TF.FileFunction,Legend,Bot*%
%TF.FilePolarity,Positive*%
%FSLAX46Y46*%
G04 Gerber Fmt 4.6, Leading zero omitted, Abs format (unit mm)*
G04 Created by KiCad (PCBNEW (5.1.12)-1) date 2021-12-27 17:53:29*
%MOMM*%
%LPD*%
G01*
G04 APERTURE LIST*
%ADD10C,0.070000*%
%ADD11C,0.120000*%
G04 APERTURE END LIST*
D10*
X91026190Y-69642857D02*
X90526190Y-69642857D01*
X90526190Y-69833333D01*
X90550000Y-69880952D01*
X90573809Y-69904761D01*
X90621428Y-69928571D01*
X90692857Y-69928571D01*
X90740476Y-69904761D01*
X90764285Y-69880952D01*
X90788095Y-69833333D01*
X90788095Y-69642857D01*
X90764285Y-70309523D02*
X90788095Y-70380952D01*
X90811904Y-70404761D01*
X90859523Y-70428571D01*
X90930952Y-70428571D01*
X90978571Y-70404761D01*
X91002380Y-70380952D01*
X91026190Y-70333333D01*
X91026190Y-70142857D01*
X90526190Y-70142857D01*
X90526190Y-70309523D01*
X90550000Y-70357142D01*
X90573809Y-70380952D01*
X90621428Y-70404761D01*
X90669047Y-70404761D01*
X90716666Y-70380952D01*
X90740476Y-70357142D01*
X90764285Y-70309523D01*
X90764285Y-70142857D01*
X91026190Y-70904761D02*
X91026190Y-70619047D01*
X91026190Y-70761904D02*
X90526190Y-70761904D01*
X90597619Y-70714285D01*
X90645238Y-70666666D01*
X90669047Y-70619047D01*
X90526190Y-71357142D02*
X90526190Y-71119047D01*
X90764285Y-71095238D01*
X90740476Y-71119047D01*
X90716666Y-71166666D01*
X90716666Y-71285714D01*
X90740476Y-71333333D01*
X90764285Y-71357142D01*
X90811904Y-71380952D01*
X90930952Y-71380952D01*
X90978571Y-71357142D01*
X91002380Y-71333333D01*
X91026190Y-71285714D01*
X91026190Y-71166666D01*
X91002380Y-71119047D01*
X90978571Y-71095238D01*
X91026190Y-66942857D02*
X90526190Y-66942857D01*
X90526190Y-67133333D01*
X90550000Y-67180952D01*
X90573809Y-67204761D01*
X90621428Y-67228571D01*
X90692857Y-67228571D01*
X90740476Y-67204761D01*
X90764285Y-67180952D01*
X90788095Y-67133333D01*
X90788095Y-66942857D01*
X90764285Y-67609523D02*
X90788095Y-67680952D01*
X90811904Y-67704761D01*
X90859523Y-67728571D01*
X90930952Y-67728571D01*
X90978571Y-67704761D01*
X91002380Y-67680952D01*
X91026190Y-67633333D01*
X91026190Y-67442857D01*
X90526190Y-67442857D01*
X90526190Y-67609523D01*
X90550000Y-67657142D01*
X90573809Y-67680952D01*
X90621428Y-67704761D01*
X90669047Y-67704761D01*
X90716666Y-67680952D01*
X90740476Y-67657142D01*
X90764285Y-67609523D01*
X90764285Y-67442857D01*
X91026190Y-68204761D02*
X91026190Y-67919047D01*
X91026190Y-68061904D02*
X90526190Y-68061904D01*
X90597619Y-68014285D01*
X90645238Y-67966666D01*
X90669047Y-67919047D01*
X90692857Y-68633333D02*
X91026190Y-68633333D01*
X90502380Y-68514285D02*
X90859523Y-68395238D01*
X90859523Y-68704761D01*
X95226190Y-67109523D02*
X94726190Y-67109523D01*
X95226190Y-67347619D02*
X94726190Y-67347619D01*
X95226190Y-67633333D01*
X94726190Y-67633333D01*
X94726190Y-67800000D02*
X94726190Y-68085714D01*
X95226190Y-67942857D02*
X94726190Y-67942857D01*
X95226190Y-68514285D02*
X95226190Y-68228571D01*
X95226190Y-68371428D02*
X94726190Y-68371428D01*
X94797619Y-68323809D01*
X94845238Y-68276190D01*
X94869047Y-68228571D01*
X95626190Y-69809523D02*
X95126190Y-69809523D01*
X95626190Y-70047619D02*
X95126190Y-70047619D01*
X95626190Y-70333333D01*
X95126190Y-70333333D01*
X95126190Y-70500000D02*
X95126190Y-70785714D01*
X95626190Y-70642857D02*
X95126190Y-70642857D01*
X95173809Y-70928571D02*
X95150000Y-70952380D01*
X95126190Y-71000000D01*
X95126190Y-71119047D01*
X95150000Y-71166666D01*
X95173809Y-71190476D01*
X95221428Y-71214285D01*
X95269047Y-71214285D01*
X95340476Y-71190476D01*
X95626190Y-70904761D01*
X95626190Y-71214285D01*
X105926190Y-89880952D02*
X105426190Y-89880952D01*
X105426190Y-90071428D01*
X105450000Y-90119047D01*
X105473809Y-90142857D01*
X105521428Y-90166666D01*
X105592857Y-90166666D01*
X105640476Y-90142857D01*
X105664285Y-90119047D01*
X105688095Y-90071428D01*
X105688095Y-89880952D01*
X105664285Y-90547619D02*
X105688095Y-90619047D01*
X105711904Y-90642857D01*
X105759523Y-90666666D01*
X105830952Y-90666666D01*
X105878571Y-90642857D01*
X105902380Y-90619047D01*
X105926190Y-90571428D01*
X105926190Y-90380952D01*
X105426190Y-90380952D01*
X105426190Y-90547619D01*
X105450000Y-90595238D01*
X105473809Y-90619047D01*
X105521428Y-90642857D01*
X105569047Y-90642857D01*
X105616666Y-90619047D01*
X105640476Y-90595238D01*
X105664285Y-90547619D01*
X105664285Y-90380952D01*
X105926190Y-91142857D02*
X105926190Y-90857142D01*
X105926190Y-91000000D02*
X105426190Y-91000000D01*
X105497619Y-90952380D01*
X105545238Y-90904761D01*
X105569047Y-90857142D01*
X109726190Y-89490476D02*
X109226190Y-89490476D01*
X109226190Y-89609523D01*
X109250000Y-89680952D01*
X109297619Y-89728571D01*
X109345238Y-89752380D01*
X109440476Y-89776190D01*
X109511904Y-89776190D01*
X109607142Y-89752380D01*
X109654761Y-89728571D01*
X109702380Y-89680952D01*
X109726190Y-89609523D01*
X109726190Y-89490476D01*
X109726190Y-90228571D02*
X109726190Y-89990476D01*
X109226190Y-89990476D01*
X109464285Y-90395238D02*
X109464285Y-90561904D01*
X109726190Y-90633333D02*
X109726190Y-90395238D01*
X109226190Y-90395238D01*
X109226190Y-90633333D01*
X109726190Y-90847619D02*
X109226190Y-90847619D01*
X109226190Y-90966666D01*
X109250000Y-91038095D01*
X109297619Y-91085714D01*
X109345238Y-91109523D01*
X109440476Y-91133333D01*
X109511904Y-91133333D01*
X109607142Y-91109523D01*
X109654761Y-91085714D01*
X109702380Y-91038095D01*
X109726190Y-90966666D01*
X109726190Y-90847619D01*
X105426190Y-71278571D02*
X104926190Y-71278571D01*
X104926190Y-71469047D01*
X104950000Y-71516666D01*
X104973809Y-71540476D01*
X105021428Y-71564285D01*
X105092857Y-71564285D01*
X105140476Y-71540476D01*
X105164285Y-71516666D01*
X105188095Y-71469047D01*
X105188095Y-71278571D01*
X105283333Y-71754761D02*
X105283333Y-71992857D01*
X105426190Y-71707142D02*
X104926190Y-71873809D01*
X105426190Y-72040476D01*
X105426190Y-72469047D02*
X105426190Y-72183333D01*
X105426190Y-72326190D02*
X104926190Y-72326190D01*
X104997619Y-72278571D01*
X105045238Y-72230952D01*
X105069047Y-72183333D01*
X104926190Y-72921428D02*
X104926190Y-72683333D01*
X105164285Y-72659523D01*
X105140476Y-72683333D01*
X105116666Y-72730952D01*
X105116666Y-72850000D01*
X105140476Y-72897619D01*
X105164285Y-72921428D01*
X105211904Y-72945238D01*
X105330952Y-72945238D01*
X105378571Y-72921428D01*
X105402380Y-72897619D01*
X105426190Y-72850000D01*
X105426190Y-72730952D01*
X105402380Y-72683333D01*
X105378571Y-72659523D01*
X108864285Y-71883333D02*
X108888095Y-71954761D01*
X108911904Y-71978571D01*
X108959523Y-72002380D01*
X109030952Y-72002380D01*
X109078571Y-71978571D01*
X109102380Y-71954761D01*
X109126190Y-71907142D01*
X109126190Y-71716666D01*
X108626190Y-71716666D01*
X108626190Y-71883333D01*
X108650000Y-71930952D01*
X108673809Y-71954761D01*
X108721428Y-71978571D01*
X108769047Y-71978571D01*
X108816666Y-71954761D01*
X108840476Y-71930952D01*
X108864285Y-71883333D01*
X108864285Y-71716666D01*
X108626190Y-72145238D02*
X108626190Y-72430952D01*
X109126190Y-72288095D02*
X108626190Y-72288095D01*
X109126190Y-72597619D02*
X108626190Y-72597619D01*
X109126190Y-72883333D01*
X108626190Y-72883333D01*
X104526190Y-67754761D02*
X104026190Y-67754761D01*
X104383333Y-67921428D01*
X104026190Y-68088095D01*
X104526190Y-68088095D01*
X104526190Y-68611904D02*
X104288095Y-68445238D01*
X104526190Y-68326190D02*
X104026190Y-68326190D01*
X104026190Y-68516666D01*
X104050000Y-68564285D01*
X104073809Y-68588095D01*
X104121428Y-68611904D01*
X104192857Y-68611904D01*
X104240476Y-68588095D01*
X104264285Y-68564285D01*
X104288095Y-68516666D01*
X104288095Y-68326190D01*
X104502380Y-68802380D02*
X104526190Y-68873809D01*
X104526190Y-68992857D01*
X104502380Y-69040476D01*
X104478571Y-69064285D01*
X104430952Y-69088095D01*
X104383333Y-69088095D01*
X104335714Y-69064285D01*
X104311904Y-69040476D01*
X104288095Y-68992857D01*
X104264285Y-68897619D01*
X104240476Y-68850000D01*
X104216666Y-68826190D01*
X104169047Y-68802380D01*
X104121428Y-68802380D01*
X104073809Y-68826190D01*
X104050000Y-68850000D01*
X104026190Y-68897619D01*
X104026190Y-69016666D01*
X104050000Y-69088095D01*
X104026190Y-69230952D02*
X104026190Y-69516666D01*
X104526190Y-69373809D02*
X104026190Y-69373809D01*
X109026190Y-68016666D02*
X108526190Y-68016666D01*
X108526190Y-68207142D01*
X108550000Y-68254761D01*
X108573809Y-68278571D01*
X108621428Y-68302380D01*
X108692857Y-68302380D01*
X108740476Y-68278571D01*
X108764285Y-68254761D01*
X108788095Y-68207142D01*
X108788095Y-68016666D01*
X108883333Y-68492857D02*
X108883333Y-68730952D01*
X109026190Y-68445238D02*
X108526190Y-68611904D01*
X109026190Y-68778571D01*
X108740476Y-69016666D02*
X108716666Y-68969047D01*
X108692857Y-68945238D01*
X108645238Y-68921428D01*
X108621428Y-68921428D01*
X108573809Y-68945238D01*
X108550000Y-68969047D01*
X108526190Y-69016666D01*
X108526190Y-69111904D01*
X108550000Y-69159523D01*
X108573809Y-69183333D01*
X108621428Y-69207142D01*
X108645238Y-69207142D01*
X108692857Y-69183333D01*
X108716666Y-69159523D01*
X108740476Y-69111904D01*
X108740476Y-69016666D01*
X108764285Y-68969047D01*
X108788095Y-68945238D01*
X108835714Y-68921428D01*
X108930952Y-68921428D01*
X108978571Y-68945238D01*
X109002380Y-68969047D01*
X109026190Y-69016666D01*
X109026190Y-69111904D01*
X109002380Y-69159523D01*
X108978571Y-69183333D01*
X108930952Y-69207142D01*
X108835714Y-69207142D01*
X108788095Y-69183333D01*
X108764285Y-69159523D01*
X108740476Y-69111904D01*
X104726190Y-64142857D02*
X104226190Y-64142857D01*
X104226190Y-64333333D01*
X104250000Y-64380952D01*
X104273809Y-64404761D01*
X104321428Y-64428571D01*
X104392857Y-64428571D01*
X104440476Y-64404761D01*
X104464285Y-64380952D01*
X104488095Y-64333333D01*
X104488095Y-64142857D01*
X104678571Y-64928571D02*
X104702380Y-64904761D01*
X104726190Y-64833333D01*
X104726190Y-64785714D01*
X104702380Y-64714285D01*
X104654761Y-64666666D01*
X104607142Y-64642857D01*
X104511904Y-64619047D01*
X104440476Y-64619047D01*
X104345238Y-64642857D01*
X104297619Y-64666666D01*
X104250000Y-64714285D01*
X104226190Y-64785714D01*
X104226190Y-64833333D01*
X104250000Y-64904761D01*
X104273809Y-64928571D01*
X104726190Y-65404761D02*
X104726190Y-65119047D01*
X104726190Y-65261904D02*
X104226190Y-65261904D01*
X104297619Y-65214285D01*
X104345238Y-65166666D01*
X104369047Y-65119047D01*
X104226190Y-65571428D02*
X104226190Y-65880952D01*
X104416666Y-65714285D01*
X104416666Y-65785714D01*
X104440476Y-65833333D01*
X104464285Y-65857142D01*
X104511904Y-65880952D01*
X104630952Y-65880952D01*
X104678571Y-65857142D01*
X104702380Y-65833333D01*
X104726190Y-65785714D01*
X104726190Y-65642857D01*
X104702380Y-65595238D01*
X104678571Y-65571428D01*
X108726190Y-64630952D02*
X108226190Y-64630952D01*
X108226190Y-64750000D01*
X108250000Y-64821428D01*
X108297619Y-64869047D01*
X108345238Y-64892857D01*
X108440476Y-64916666D01*
X108511904Y-64916666D01*
X108607142Y-64892857D01*
X108654761Y-64869047D01*
X108702380Y-64821428D01*
X108726190Y-64750000D01*
X108726190Y-64630952D01*
X108726190Y-65392857D02*
X108726190Y-65107142D01*
X108726190Y-65250000D02*
X108226190Y-65250000D01*
X108297619Y-65202380D01*
X108345238Y-65154761D01*
X108369047Y-65107142D01*
X105026190Y-61430952D02*
X104526190Y-61430952D01*
X104526190Y-61550000D01*
X104550000Y-61621428D01*
X104597619Y-61669047D01*
X104645238Y-61692857D01*
X104740476Y-61716666D01*
X104811904Y-61716666D01*
X104907142Y-61692857D01*
X104954761Y-61669047D01*
X105002380Y-61621428D01*
X105026190Y-61550000D01*
X105026190Y-61430952D01*
X104573809Y-61907142D02*
X104550000Y-61930952D01*
X104526190Y-61978571D01*
X104526190Y-62097619D01*
X104550000Y-62145238D01*
X104573809Y-62169047D01*
X104621428Y-62192857D01*
X104669047Y-62192857D01*
X104740476Y-62169047D01*
X105026190Y-61883333D01*
X105026190Y-62192857D01*
X108726190Y-61080952D02*
X108226190Y-61080952D01*
X108226190Y-61271428D01*
X108250000Y-61319047D01*
X108273809Y-61342857D01*
X108321428Y-61366666D01*
X108392857Y-61366666D01*
X108440476Y-61342857D01*
X108464285Y-61319047D01*
X108488095Y-61271428D01*
X108488095Y-61080952D01*
X108464285Y-61747619D02*
X108488095Y-61819047D01*
X108511904Y-61842857D01*
X108559523Y-61866666D01*
X108630952Y-61866666D01*
X108678571Y-61842857D01*
X108702380Y-61819047D01*
X108726190Y-61771428D01*
X108726190Y-61580952D01*
X108226190Y-61580952D01*
X108226190Y-61747619D01*
X108250000Y-61795238D01*
X108273809Y-61819047D01*
X108321428Y-61842857D01*
X108369047Y-61842857D01*
X108416666Y-61819047D01*
X108440476Y-61795238D01*
X108464285Y-61747619D01*
X108464285Y-61580952D01*
X108226190Y-62176190D02*
X108226190Y-62223809D01*
X108250000Y-62271428D01*
X108273809Y-62295238D01*
X108321428Y-62319047D01*
X108416666Y-62342857D01*
X108535714Y-62342857D01*
X108630952Y-62319047D01*
X108678571Y-62295238D01*
X108702380Y-62271428D01*
X108726190Y-62223809D01*
X108726190Y-62176190D01*
X108702380Y-62128571D01*
X108678571Y-62104761D01*
X108630952Y-62080952D01*
X108535714Y-62057142D01*
X108416666Y-62057142D01*
X108321428Y-62080952D01*
X108273809Y-62104761D01*
X108250000Y-62128571D01*
X108226190Y-62176190D01*
D11*
%TO.C,JP7*%
X93500000Y-69500000D02*
X92100000Y-69500000D01*
X91400000Y-70200000D02*
X91400000Y-70800000D01*
X92100000Y-71500000D02*
X93500000Y-71500000D01*
X94200000Y-70800000D02*
X94200000Y-70200000D01*
X94200000Y-70200000D02*
G75*
G03*
X93500000Y-69500000I-700000J0D01*
G01*
X93500000Y-71500000D02*
G75*
G03*
X94200000Y-70800000I0J700000D01*
G01*
X91400000Y-70800000D02*
G75*
G03*
X92100000Y-71500000I700000J0D01*
G01*
X92100000Y-69500000D02*
G75*
G03*
X91400000Y-70200000I0J-700000D01*
G01*
%TO.C,JP6*%
X93350000Y-66800000D02*
X91950000Y-66800000D01*
X91250000Y-67500000D02*
X91250000Y-68100000D01*
X91950000Y-68800000D02*
X93350000Y-68800000D01*
X94050000Y-68100000D02*
X94050000Y-67500000D01*
X94050000Y-67500000D02*
G75*
G03*
X93350000Y-66800000I-700000J0D01*
G01*
X93350000Y-68800000D02*
G75*
G03*
X94050000Y-68100000I0J700000D01*
G01*
X91250000Y-68100000D02*
G75*
G03*
X91950000Y-68800000I700000J0D01*
G01*
X91950000Y-66800000D02*
G75*
G03*
X91250000Y-67500000I0J-700000D01*
G01*
%TO.C,JP5*%
X105600000Y-72000000D02*
X105600000Y-72600000D01*
X107700000Y-71300000D02*
X106300000Y-71300000D01*
X108400000Y-72600000D02*
X108400000Y-72000000D01*
X106300000Y-73300000D02*
X107700000Y-73300000D01*
X105600000Y-72600000D02*
G75*
G03*
X106300000Y-73300000I700000J0D01*
G01*
X106300000Y-71300000D02*
G75*
G03*
X105600000Y-72000000I0J-700000D01*
G01*
X108400000Y-72000000D02*
G75*
G03*
X107700000Y-71300000I-700000J0D01*
G01*
X107700000Y-73300000D02*
G75*
G03*
X108400000Y-72600000I0J700000D01*
G01*
%TO.C,JP4*%
X106850000Y-91700000D02*
X108250000Y-91700000D01*
X108950000Y-91000000D02*
X108950000Y-90400000D01*
X108250000Y-89700000D02*
X106850000Y-89700000D01*
X106150000Y-90400000D02*
X106150000Y-91000000D01*
X106150000Y-91000000D02*
G75*
G03*
X106850000Y-91700000I700000J0D01*
G01*
X106850000Y-89700000D02*
G75*
G03*
X106150000Y-90400000I0J-700000D01*
G01*
X108950000Y-90400000D02*
G75*
G03*
X108250000Y-89700000I-700000J0D01*
G01*
X108250000Y-91700000D02*
G75*
G03*
X108950000Y-91000000I0J700000D01*
G01*
%TO.C,U7*%
X92090000Y-82790000D02*
X93350000Y-82790000D01*
X98910000Y-82790000D02*
X97650000Y-82790000D01*
X92090000Y-86550000D02*
X92090000Y-82790000D01*
X98910000Y-88800000D02*
X98910000Y-82790000D01*
%TO.C,JP3*%
X108050000Y-62000000D02*
X108050000Y-61400000D01*
X105950000Y-62700000D02*
X107350000Y-62700000D01*
X105250000Y-61400000D02*
X105250000Y-62000000D01*
X107350000Y-60700000D02*
X105950000Y-60700000D01*
X108050000Y-61400000D02*
G75*
G03*
X107350000Y-60700000I-700000J0D01*
G01*
X107350000Y-62700000D02*
G75*
G03*
X108050000Y-62000000I0J700000D01*
G01*
X105250000Y-62000000D02*
G75*
G03*
X105950000Y-62700000I700000J0D01*
G01*
X105950000Y-60700000D02*
G75*
G03*
X105250000Y-61400000I0J-700000D01*
G01*
%TO.C,JP2*%
X105250000Y-64800000D02*
X105250000Y-65400000D01*
X107350000Y-64100000D02*
X105950000Y-64100000D01*
X108050000Y-65400000D02*
X108050000Y-64800000D01*
X105950000Y-66100000D02*
X107350000Y-66100000D01*
X105250000Y-65400000D02*
G75*
G03*
X105950000Y-66100000I700000J0D01*
G01*
X105950000Y-64100000D02*
G75*
G03*
X105250000Y-64800000I0J-700000D01*
G01*
X108050000Y-64800000D02*
G75*
G03*
X107350000Y-64100000I-700000J0D01*
G01*
X107350000Y-66100000D02*
G75*
G03*
X108050000Y-65400000I0J700000D01*
G01*
%TO.C,JP1*%
X105900000Y-69600000D02*
X107300000Y-69600000D01*
X108000000Y-68900000D02*
X108000000Y-68300000D01*
X107300000Y-67600000D02*
X105900000Y-67600000D01*
X105200000Y-68300000D02*
X105200000Y-68900000D01*
X105200000Y-68900000D02*
G75*
G03*
X105900000Y-69600000I700000J0D01*
G01*
X105900000Y-67600000D02*
G75*
G03*
X105200000Y-68300000I0J-700000D01*
G01*
X108000000Y-68300000D02*
G75*
G03*
X107300000Y-67600000I-700000J0D01*
G01*
X107300000Y-69600000D02*
G75*
G03*
X108000000Y-68900000I0J700000D01*
G01*
%TO.C,C11*%
X100615000Y-87988748D02*
X100615000Y-88511252D01*
X102085000Y-87988748D02*
X102085000Y-88511252D01*
%TO.C,C13*%
X107990000Y-77440580D02*
X107990000Y-77159420D01*
X109010000Y-77440580D02*
X109010000Y-77159420D01*
%TO.C,U6*%
X109760000Y-82700000D02*
X109760000Y-86150000D01*
X109760000Y-82700000D02*
X109760000Y-80750000D01*
X99640000Y-82700000D02*
X99640000Y-84650000D01*
X99640000Y-82700000D02*
X99640000Y-80750000D01*
%TO.C,C15*%
X106288748Y-86865000D02*
X106811252Y-86865000D01*
X106288748Y-88335000D02*
X106811252Y-88335000D01*
%TO.C,C12*%
X111035000Y-76838748D02*
X111035000Y-77361252D01*
X109565000Y-76838748D02*
X109565000Y-77361252D01*
%TO.C,R4*%
X99964564Y-68435000D02*
X99510436Y-68435000D01*
X99964564Y-66965000D02*
X99510436Y-66965000D01*
%TO.C,R2*%
X89715000Y-85477064D02*
X89715000Y-85022936D01*
X91185000Y-85477064D02*
X91185000Y-85022936D01*
%TO.C,J4*%
X111770000Y-94490000D02*
X113100000Y-94490000D01*
X111770000Y-93160000D02*
X111770000Y-94490000D01*
X111770000Y-91890000D02*
X114430000Y-91890000D01*
X114430000Y-91890000D02*
X114430000Y-56270000D01*
X111770000Y-91890000D02*
X111770000Y-56270000D01*
X111770000Y-56270000D02*
X114430000Y-56270000D01*
%TO.C,J3*%
X86370000Y-94390000D02*
X87700000Y-94390000D01*
X86370000Y-93060000D02*
X86370000Y-94390000D01*
X86370000Y-91790000D02*
X89030000Y-91790000D01*
X89030000Y-91790000D02*
X89030000Y-56170000D01*
X86370000Y-91790000D02*
X86370000Y-56170000D01*
X86370000Y-56170000D02*
X89030000Y-56170000D01*
%TO.C,C17*%
X96010000Y-90865580D02*
X96010000Y-90584420D01*
X94990000Y-90865580D02*
X94990000Y-90584420D01*
%TO.C,C16*%
X92365000Y-90638748D02*
X92365000Y-91161252D01*
X93835000Y-90638748D02*
X93835000Y-91161252D01*
%TO.C,C14*%
X96965000Y-90638748D02*
X96965000Y-91161252D01*
X98435000Y-90638748D02*
X98435000Y-91161252D01*
%TO.C,JP7*%
D10*
X93200000Y-71671428D02*
X93200000Y-72100000D01*
X93228571Y-72185714D01*
X93285714Y-72242857D01*
X93371428Y-72271428D01*
X93428571Y-72271428D01*
X92914285Y-72271428D02*
X92914285Y-71671428D01*
X92685714Y-71671428D01*
X92628571Y-71700000D01*
X92600000Y-71728571D01*
X92571428Y-71785714D01*
X92571428Y-71871428D01*
X92600000Y-71928571D01*
X92628571Y-71957142D01*
X92685714Y-71985714D01*
X92914285Y-71985714D01*
X92371428Y-71671428D02*
X91971428Y-71671428D01*
X92228571Y-72271428D01*
%TO.C,JP6*%
X93150000Y-65971428D02*
X93150000Y-66400000D01*
X93178571Y-66485714D01*
X93235714Y-66542857D01*
X93321428Y-66571428D01*
X93378571Y-66571428D01*
X92864285Y-66571428D02*
X92864285Y-65971428D01*
X92635714Y-65971428D01*
X92578571Y-66000000D01*
X92550000Y-66028571D01*
X92521428Y-66085714D01*
X92521428Y-66171428D01*
X92550000Y-66228571D01*
X92578571Y-66257142D01*
X92635714Y-66285714D01*
X92864285Y-66285714D01*
X92007142Y-65971428D02*
X92121428Y-65971428D01*
X92178571Y-66000000D01*
X92207142Y-66028571D01*
X92264285Y-66114285D01*
X92292857Y-66228571D01*
X92292857Y-66457142D01*
X92264285Y-66514285D01*
X92235714Y-66542857D01*
X92178571Y-66571428D01*
X92064285Y-66571428D01*
X92007142Y-66542857D01*
X91978571Y-66514285D01*
X91950000Y-66457142D01*
X91950000Y-66314285D01*
X91978571Y-66257142D01*
X92007142Y-66228571D01*
X92064285Y-66200000D01*
X92178571Y-66200000D01*
X92235714Y-66228571D01*
X92264285Y-66257142D01*
X92292857Y-66314285D01*
%TO.C,JP5*%
X107500000Y-73471428D02*
X107500000Y-73900000D01*
X107528571Y-73985714D01*
X107585714Y-74042857D01*
X107671428Y-74071428D01*
X107728571Y-74071428D01*
X107214285Y-74071428D02*
X107214285Y-73471428D01*
X106985714Y-73471428D01*
X106928571Y-73500000D01*
X106900000Y-73528571D01*
X106871428Y-73585714D01*
X106871428Y-73671428D01*
X106900000Y-73728571D01*
X106928571Y-73757142D01*
X106985714Y-73785714D01*
X107214285Y-73785714D01*
X106328571Y-73471428D02*
X106614285Y-73471428D01*
X106642857Y-73757142D01*
X106614285Y-73728571D01*
X106557142Y-73700000D01*
X106414285Y-73700000D01*
X106357142Y-73728571D01*
X106328571Y-73757142D01*
X106300000Y-73814285D01*
X106300000Y-73957142D01*
X106328571Y-74014285D01*
X106357142Y-74042857D01*
X106414285Y-74071428D01*
X106557142Y-74071428D01*
X106614285Y-74042857D01*
X106642857Y-74014285D01*
%TO.C,JP4*%
X108000000Y-91771428D02*
X108000000Y-92200000D01*
X108028571Y-92285714D01*
X108085714Y-92342857D01*
X108171428Y-92371428D01*
X108228571Y-92371428D01*
X107714285Y-92371428D02*
X107714285Y-91771428D01*
X107485714Y-91771428D01*
X107428571Y-91800000D01*
X107400000Y-91828571D01*
X107371428Y-91885714D01*
X107371428Y-91971428D01*
X107400000Y-92028571D01*
X107428571Y-92057142D01*
X107485714Y-92085714D01*
X107714285Y-92085714D01*
X106857142Y-91971428D02*
X106857142Y-92371428D01*
X107000000Y-91742857D02*
X107142857Y-92171428D01*
X106771428Y-92171428D01*
%TO.C,U7*%
X99671428Y-84242857D02*
X100157142Y-84242857D01*
X100214285Y-84271428D01*
X100242857Y-84300000D01*
X100271428Y-84357142D01*
X100271428Y-84471428D01*
X100242857Y-84528571D01*
X100214285Y-84557142D01*
X100157142Y-84585714D01*
X99671428Y-84585714D01*
X99671428Y-84814285D02*
X99671428Y-85214285D01*
X100271428Y-84957142D01*
%TO.C,JP3*%
X107200000Y-62871428D02*
X107200000Y-63300000D01*
X107228571Y-63385714D01*
X107285714Y-63442857D01*
X107371428Y-63471428D01*
X107428571Y-63471428D01*
X106914285Y-63471428D02*
X106914285Y-62871428D01*
X106685714Y-62871428D01*
X106628571Y-62900000D01*
X106600000Y-62928571D01*
X106571428Y-62985714D01*
X106571428Y-63071428D01*
X106600000Y-63128571D01*
X106628571Y-63157142D01*
X106685714Y-63185714D01*
X106914285Y-63185714D01*
X106371428Y-62871428D02*
X106000000Y-62871428D01*
X106200000Y-63100000D01*
X106114285Y-63100000D01*
X106057142Y-63128571D01*
X106028571Y-63157142D01*
X106000000Y-63214285D01*
X106000000Y-63357142D01*
X106028571Y-63414285D01*
X106057142Y-63442857D01*
X106114285Y-63471428D01*
X106285714Y-63471428D01*
X106342857Y-63442857D01*
X106371428Y-63414285D01*
%TO.C,JP2*%
X107100000Y-66271428D02*
X107100000Y-66700000D01*
X107128571Y-66785714D01*
X107185714Y-66842857D01*
X107271428Y-66871428D01*
X107328571Y-66871428D01*
X106814285Y-66871428D02*
X106814285Y-66271428D01*
X106585714Y-66271428D01*
X106528571Y-66300000D01*
X106500000Y-66328571D01*
X106471428Y-66385714D01*
X106471428Y-66471428D01*
X106500000Y-66528571D01*
X106528571Y-66557142D01*
X106585714Y-66585714D01*
X106814285Y-66585714D01*
X106242857Y-66328571D02*
X106214285Y-66300000D01*
X106157142Y-66271428D01*
X106014285Y-66271428D01*
X105957142Y-66300000D01*
X105928571Y-66328571D01*
X105900000Y-66385714D01*
X105900000Y-66442857D01*
X105928571Y-66528571D01*
X106271428Y-66871428D01*
X105900000Y-66871428D01*
%TO.C,JP1*%
X107100000Y-69871428D02*
X107100000Y-70300000D01*
X107128571Y-70385714D01*
X107185714Y-70442857D01*
X107271428Y-70471428D01*
X107328571Y-70471428D01*
X106814285Y-70471428D02*
X106814285Y-69871428D01*
X106585714Y-69871428D01*
X106528571Y-69900000D01*
X106500000Y-69928571D01*
X106471428Y-69985714D01*
X106471428Y-70071428D01*
X106500000Y-70128571D01*
X106528571Y-70157142D01*
X106585714Y-70185714D01*
X106814285Y-70185714D01*
X105900000Y-70471428D02*
X106242857Y-70471428D01*
X106071428Y-70471428D02*
X106071428Y-69871428D01*
X106128571Y-69957142D01*
X106185714Y-70014285D01*
X106242857Y-70042857D01*
%TO.C,C11*%
X101785714Y-90564285D02*
X101814285Y-90592857D01*
X101900000Y-90621428D01*
X101957142Y-90621428D01*
X102042857Y-90592857D01*
X102100000Y-90535714D01*
X102128571Y-90478571D01*
X102157142Y-90364285D01*
X102157142Y-90278571D01*
X102128571Y-90164285D01*
X102100000Y-90107142D01*
X102042857Y-90050000D01*
X101957142Y-90021428D01*
X101900000Y-90021428D01*
X101814285Y-90050000D01*
X101785714Y-90078571D01*
X101214285Y-90621428D02*
X101557142Y-90621428D01*
X101385714Y-90621428D02*
X101385714Y-90021428D01*
X101442857Y-90107142D01*
X101500000Y-90164285D01*
X101557142Y-90192857D01*
X100642857Y-90621428D02*
X100985714Y-90621428D01*
X100814285Y-90621428D02*
X100814285Y-90021428D01*
X100871428Y-90107142D01*
X100928571Y-90164285D01*
X100985714Y-90192857D01*
%TO.C,C13*%
X108835714Y-75514285D02*
X108864285Y-75542857D01*
X108950000Y-75571428D01*
X109007142Y-75571428D01*
X109092857Y-75542857D01*
X109150000Y-75485714D01*
X109178571Y-75428571D01*
X109207142Y-75314285D01*
X109207142Y-75228571D01*
X109178571Y-75114285D01*
X109150000Y-75057142D01*
X109092857Y-75000000D01*
X109007142Y-74971428D01*
X108950000Y-74971428D01*
X108864285Y-75000000D01*
X108835714Y-75028571D01*
X108264285Y-75571428D02*
X108607142Y-75571428D01*
X108435714Y-75571428D02*
X108435714Y-74971428D01*
X108492857Y-75057142D01*
X108550000Y-75114285D01*
X108607142Y-75142857D01*
X108064285Y-74971428D02*
X107692857Y-74971428D01*
X107892857Y-75200000D01*
X107807142Y-75200000D01*
X107750000Y-75228571D01*
X107721428Y-75257142D01*
X107692857Y-75314285D01*
X107692857Y-75457142D01*
X107721428Y-75514285D01*
X107750000Y-75542857D01*
X107807142Y-75571428D01*
X107978571Y-75571428D01*
X108035714Y-75542857D01*
X108064285Y-75514285D01*
%TO.C,U6*%
X99457142Y-79671428D02*
X99457142Y-80157142D01*
X99428571Y-80214285D01*
X99400000Y-80242857D01*
X99342857Y-80271428D01*
X99228571Y-80271428D01*
X99171428Y-80242857D01*
X99142857Y-80214285D01*
X99114285Y-80157142D01*
X99114285Y-79671428D01*
X98571428Y-79671428D02*
X98685714Y-79671428D01*
X98742857Y-79700000D01*
X98771428Y-79728571D01*
X98828571Y-79814285D01*
X98857142Y-79928571D01*
X98857142Y-80157142D01*
X98828571Y-80214285D01*
X98800000Y-80242857D01*
X98742857Y-80271428D01*
X98628571Y-80271428D01*
X98571428Y-80242857D01*
X98542857Y-80214285D01*
X98514285Y-80157142D01*
X98514285Y-80014285D01*
X98542857Y-79957142D01*
X98571428Y-79928571D01*
X98628571Y-79900000D01*
X98742857Y-79900000D01*
X98800000Y-79928571D01*
X98828571Y-79957142D01*
X98857142Y-80014285D01*
%TO.C,C15*%
X107185714Y-88964285D02*
X107214285Y-88992857D01*
X107300000Y-89021428D01*
X107357142Y-89021428D01*
X107442857Y-88992857D01*
X107500000Y-88935714D01*
X107528571Y-88878571D01*
X107557142Y-88764285D01*
X107557142Y-88678571D01*
X107528571Y-88564285D01*
X107500000Y-88507142D01*
X107442857Y-88450000D01*
X107357142Y-88421428D01*
X107300000Y-88421428D01*
X107214285Y-88450000D01*
X107185714Y-88478571D01*
X106614285Y-89021428D02*
X106957142Y-89021428D01*
X106785714Y-89021428D02*
X106785714Y-88421428D01*
X106842857Y-88507142D01*
X106900000Y-88564285D01*
X106957142Y-88592857D01*
X106071428Y-88421428D02*
X106357142Y-88421428D01*
X106385714Y-88707142D01*
X106357142Y-88678571D01*
X106300000Y-88650000D01*
X106157142Y-88650000D01*
X106100000Y-88678571D01*
X106071428Y-88707142D01*
X106042857Y-88764285D01*
X106042857Y-88907142D01*
X106071428Y-88964285D01*
X106100000Y-88992857D01*
X106157142Y-89021428D01*
X106300000Y-89021428D01*
X106357142Y-88992857D01*
X106385714Y-88964285D01*
%TO.C,C12*%
X110685714Y-75064285D02*
X110714285Y-75092857D01*
X110800000Y-75121428D01*
X110857142Y-75121428D01*
X110942857Y-75092857D01*
X111000000Y-75035714D01*
X111028571Y-74978571D01*
X111057142Y-74864285D01*
X111057142Y-74778571D01*
X111028571Y-74664285D01*
X111000000Y-74607142D01*
X110942857Y-74550000D01*
X110857142Y-74521428D01*
X110800000Y-74521428D01*
X110714285Y-74550000D01*
X110685714Y-74578571D01*
X110114285Y-75121428D02*
X110457142Y-75121428D01*
X110285714Y-75121428D02*
X110285714Y-74521428D01*
X110342857Y-74607142D01*
X110400000Y-74664285D01*
X110457142Y-74692857D01*
X109885714Y-74578571D02*
X109857142Y-74550000D01*
X109800000Y-74521428D01*
X109657142Y-74521428D01*
X109600000Y-74550000D01*
X109571428Y-74578571D01*
X109542857Y-74635714D01*
X109542857Y-74692857D01*
X109571428Y-74778571D01*
X109914285Y-75121428D01*
X109542857Y-75121428D01*
%TO.C,R4*%
X97625000Y-67821428D02*
X97825000Y-67535714D01*
X97967857Y-67821428D02*
X97967857Y-67221428D01*
X97739285Y-67221428D01*
X97682142Y-67250000D01*
X97653571Y-67278571D01*
X97625000Y-67335714D01*
X97625000Y-67421428D01*
X97653571Y-67478571D01*
X97682142Y-67507142D01*
X97739285Y-67535714D01*
X97967857Y-67535714D01*
X97110714Y-67421428D02*
X97110714Y-67821428D01*
X97253571Y-67192857D02*
X97396428Y-67621428D01*
X97025000Y-67621428D01*
%TO.C,R2*%
X90500000Y-83271428D02*
X90700000Y-82985714D01*
X90842857Y-83271428D02*
X90842857Y-82671428D01*
X90614285Y-82671428D01*
X90557142Y-82700000D01*
X90528571Y-82728571D01*
X90500000Y-82785714D01*
X90500000Y-82871428D01*
X90528571Y-82928571D01*
X90557142Y-82957142D01*
X90614285Y-82985714D01*
X90842857Y-82985714D01*
X90271428Y-82728571D02*
X90242857Y-82700000D01*
X90185714Y-82671428D01*
X90042857Y-82671428D01*
X89985714Y-82700000D01*
X89957142Y-82728571D01*
X89928571Y-82785714D01*
X89928571Y-82842857D01*
X89957142Y-82928571D01*
X90300000Y-83271428D01*
X89928571Y-83271428D01*
%TO.C,J4*%
X113300000Y-95161428D02*
X113300000Y-95590000D01*
X113328571Y-95675714D01*
X113385714Y-95732857D01*
X113471428Y-95761428D01*
X113528571Y-95761428D01*
X112757142Y-95361428D02*
X112757142Y-95761428D01*
X112900000Y-95132857D02*
X113042857Y-95561428D01*
X112671428Y-95561428D01*
%TO.C,J3*%
X87900000Y-95061428D02*
X87900000Y-95490000D01*
X87928571Y-95575714D01*
X87985714Y-95632857D01*
X88071428Y-95661428D01*
X88128571Y-95661428D01*
X87671428Y-95061428D02*
X87300000Y-95061428D01*
X87500000Y-95290000D01*
X87414285Y-95290000D01*
X87357142Y-95318571D01*
X87328571Y-95347142D01*
X87300000Y-95404285D01*
X87300000Y-95547142D01*
X87328571Y-95604285D01*
X87357142Y-95632857D01*
X87414285Y-95661428D01*
X87585714Y-95661428D01*
X87642857Y-95632857D01*
X87671428Y-95604285D01*
%TO.C,C17*%
X95935714Y-92914285D02*
X95964285Y-92942857D01*
X96050000Y-92971428D01*
X96107142Y-92971428D01*
X96192857Y-92942857D01*
X96250000Y-92885714D01*
X96278571Y-92828571D01*
X96307142Y-92714285D01*
X96307142Y-92628571D01*
X96278571Y-92514285D01*
X96250000Y-92457142D01*
X96192857Y-92400000D01*
X96107142Y-92371428D01*
X96050000Y-92371428D01*
X95964285Y-92400000D01*
X95935714Y-92428571D01*
X95364285Y-92971428D02*
X95707142Y-92971428D01*
X95535714Y-92971428D02*
X95535714Y-92371428D01*
X95592857Y-92457142D01*
X95650000Y-92514285D01*
X95707142Y-92542857D01*
X95164285Y-92371428D02*
X94764285Y-92371428D01*
X95021428Y-92971428D01*
%TO.C,C16*%
X91785714Y-90864285D02*
X91814285Y-90892857D01*
X91900000Y-90921428D01*
X91957142Y-90921428D01*
X92042857Y-90892857D01*
X92100000Y-90835714D01*
X92128571Y-90778571D01*
X92157142Y-90664285D01*
X92157142Y-90578571D01*
X92128571Y-90464285D01*
X92100000Y-90407142D01*
X92042857Y-90350000D01*
X91957142Y-90321428D01*
X91900000Y-90321428D01*
X91814285Y-90350000D01*
X91785714Y-90378571D01*
X91214285Y-90921428D02*
X91557142Y-90921428D01*
X91385714Y-90921428D02*
X91385714Y-90321428D01*
X91442857Y-90407142D01*
X91500000Y-90464285D01*
X91557142Y-90492857D01*
X90700000Y-90321428D02*
X90814285Y-90321428D01*
X90871428Y-90350000D01*
X90900000Y-90378571D01*
X90957142Y-90464285D01*
X90985714Y-90578571D01*
X90985714Y-90807142D01*
X90957142Y-90864285D01*
X90928571Y-90892857D01*
X90871428Y-90921428D01*
X90757142Y-90921428D01*
X90700000Y-90892857D01*
X90671428Y-90864285D01*
X90642857Y-90807142D01*
X90642857Y-90664285D01*
X90671428Y-90607142D01*
X90700000Y-90578571D01*
X90757142Y-90550000D01*
X90871428Y-90550000D01*
X90928571Y-90578571D01*
X90957142Y-90607142D01*
X90985714Y-90664285D01*
%TO.C,C14*%
X98085714Y-93214285D02*
X98114285Y-93242857D01*
X98200000Y-93271428D01*
X98257142Y-93271428D01*
X98342857Y-93242857D01*
X98400000Y-93185714D01*
X98428571Y-93128571D01*
X98457142Y-93014285D01*
X98457142Y-92928571D01*
X98428571Y-92814285D01*
X98400000Y-92757142D01*
X98342857Y-92700000D01*
X98257142Y-92671428D01*
X98200000Y-92671428D01*
X98114285Y-92700000D01*
X98085714Y-92728571D01*
X97514285Y-93271428D02*
X97857142Y-93271428D01*
X97685714Y-93271428D02*
X97685714Y-92671428D01*
X97742857Y-92757142D01*
X97800000Y-92814285D01*
X97857142Y-92842857D01*
X97000000Y-92871428D02*
X97000000Y-93271428D01*
X97142857Y-92642857D02*
X97285714Y-93071428D01*
X96914285Y-93071428D01*
%TD*%
M02*
